<?xml version="1.0" encoding="UTF-8"?>
<svg id="Ebene_2" data-name="Ebene 2" xmlns="http://www.w3.org/2000/svg" xmlns:xlink="http://www.w3.org/1999/xlink" viewBox="0 0 366.77 474.9">
  <defs>
    <style>
      .cls-1 {
        fill: url(#Unbenannter_Verlauf_1311);
      }

      .cls-2 {
        fill: url(#Unbenannter_Verlauf_1091);
      }

      .cls-3 {
        fill: url(#Unbenannter_Verlauf_249);
      }

      .cls-4 {
        fill: url(#Unbenannter_Verlauf_1169);
      }

      .cls-5 {
        fill: url(#Unbenannter_Verlauf_1475);
      }

      .cls-6 {
        fill: url(#Unbenannter_Verlauf_647);
      }

      .cls-7 {
        fill: url(#Unbenannter_Verlauf_882);
      }

      .cls-8 {
        fill: none;
      }

      .cls-9 {
        fill: url(#Unbenannter_Verlauf_731);
      }

      .cls-10 {
        fill: url(#Unbenannter_Verlauf_814);
      }

      .cls-11 {
        fill: url(#Unbenannter_Verlauf_554);
      }

      .cls-12 {
        fill: url(#Unbenannter_Verlauf_236);
      }

      .cls-13 {
        fill: url(#Unbenannter_Verlauf_1382);
      }

      .cls-14 {
        fill: url(#Unbenannter_Verlauf_1000);
      }

      .cls-15 {
        fill: url(#Unbenannter_Verlauf_471);
      }

      .cls-16 {
        fill: url(#Unbenannter_Verlauf_1010);
      }

      .cls-17 {
        fill: url(#Unbenannter_Verlauf_377);
      }

      .cls-18 {
        fill: url(#Unbenannter_Verlauf_1422);
      }

      .cls-19 {
        fill: url(#Unbenannter_Verlauf_1400);
      }

      .cls-20 {
        fill: url(#Unbenannter_Verlauf_1412);
      }

      .cls-21 {
        fill: url(#Unbenannter_Verlauf_1244);
      }

      .cls-22 {
        fill: url(#Unbenannter_Verlauf_1390);
      }
    </style>
    <linearGradient id="Unbenannter_Verlauf_1390" data-name="Unbenannter Verlauf 1390" x1="0" y1="237.45" x2="366.77" y2="237.45" gradientUnits="userSpaceOnUse">
      <stop offset="0" stop-color="#1e6e95"/>
      <stop offset="1" stop-color="#1971a2"/>
    </linearGradient>
    <linearGradient id="Unbenannter_Verlauf_1311" data-name="Unbenannter Verlauf 1311" x1="301.44" y1="213.46" x2="314.35" y2="168.43" gradientUnits="userSpaceOnUse">
      <stop offset="0" stop-color="#1e76a4"/>
      <stop offset="1" stop-color="#2689af"/>
    </linearGradient>
    <linearGradient id="Unbenannter_Verlauf_1382" data-name="Unbenannter Verlauf 1382" x1="280.28" y1="261.32" x2="366.77" y2="261.32" gradientUnits="userSpaceOnUse">
      <stop offset="0" stop-color="#2696bb"/>
      <stop offset="1" stop-color="#2689af"/>
    </linearGradient>
    <linearGradient id="Unbenannter_Verlauf_1091" data-name="Unbenannter Verlauf 1091" x1="319.27" y1="165" x2="324.98" y2="1.56" gradientUnits="userSpaceOnUse">
      <stop offset="0" stop-color="#62c2d0"/>
      <stop offset="1" stop-color="#6ec5ce"/>
    </linearGradient>
    <linearGradient id="Unbenannter_Verlauf_1169" data-name="Unbenannter Verlauf 1169" x1="269.17" y1="179.74" x2="281.73" y2=".1" gradientUnits="userSpaceOnUse">
      <stop offset="0" stop-color="#1cb3c9"/>
      <stop offset="1" stop-color="#52beca"/>
    </linearGradient>
    <linearGradient id="Unbenannter_Verlauf_1010" data-name="Unbenannter Verlauf 1010" x1="239.82" y1="144.42" x2="229.97" y2="3.52" gradientUnits="userSpaceOnUse">
      <stop offset="0" stop-color="#288ca6"/>
      <stop offset="1" stop-color="#3ebac5"/>
    </linearGradient>
    <linearGradient id="Unbenannter_Verlauf_882" data-name="Unbenannter Verlauf 882" x1="181.37" y1="140.88" x2="40.64" y2="-32.91" gradientUnits="userSpaceOnUse">
      <stop offset="0" stop-color="#16a3bf"/>
      <stop offset="1" stop-color="#1f9eb8"/>
    </linearGradient>
    <linearGradient id="Unbenannter_Verlauf_814" data-name="Unbenannter Verlauf 814" x1="-14.29" y1="13.32" x2="103.18" y2="139.29" gradientUnits="userSpaceOnUse">
      <stop offset="0" stop-color="#5dc1d2"/>
      <stop offset="1" stop-color="#19abc6"/>
    </linearGradient>
    <linearGradient id="Unbenannter_Verlauf_731" data-name="Unbenannter Verlauf 731" x1="33.68" y1="193.98" x2="13.15" y2="-1.38" gradientUnits="userSpaceOnUse">
      <stop offset="0" stop-color="#2892b1"/>
      <stop offset="1" stop-color="#19abc6"/>
    </linearGradient>
    <linearGradient id="Unbenannter_Verlauf_647" data-name="Unbenannter Verlauf 647" x1="118.66" y1="315.53" x2="94.56" y2="119.26" gradientUnits="userSpaceOnUse">
      <stop offset="0" stop-color="#2786b9"/>
      <stop offset="1" stop-color="#19abc6"/>
    </linearGradient>
    <linearGradient id="Unbenannter_Verlauf_377" data-name="Unbenannter Verlauf 377" x1="95.67" y1="412.92" x2="81.75" y2="147.37" gradientUnits="userSpaceOnUse">
      <stop offset="0" stop-color="#174e99"/>
      <stop offset="1" stop-color="#1e80ad"/>
    </linearGradient>
    <linearGradient id="Unbenannter_Verlauf_471" data-name="Unbenannter Verlauf 471" x1="43.67" y1="347.32" x2="29.91" y2="150.67" gradientUnits="userSpaceOnUse">
      <stop offset="0" stop-color="#17428b"/>
      <stop offset="1" stop-color="#176b9f"/>
    </linearGradient>
    <linearGradient id="Unbenannter_Verlauf_236" data-name="Unbenannter Verlauf 236" x1="96.99" y1="443.24" x2="27.66" y2="371.45" gradientUnits="userSpaceOnUse">
      <stop offset="0" stop-color="#26326e"/>
      <stop offset="1" stop-color="#1c3e7d"/>
    </linearGradient>
    <linearGradient id="Unbenannter_Verlauf_249" data-name="Unbenannter Verlauf 249" x1="31.03" y1="473.74" x2="35.55" y2="344.11" gradientUnits="userSpaceOnUse">
      <stop offset="0" stop-color="#272f65"/>
      <stop offset="1" stop-color="#24346b"/>
    </linearGradient>
    <linearGradient id="Unbenannter_Verlauf_554" data-name="Unbenannter Verlauf 554" x1="28.77" y1="408.67" x2="13.94" y2="196.55" gradientUnits="userSpaceOnUse">
      <stop offset="0" stop-color="#273169"/>
      <stop offset="1" stop-color="#114b8a"/>
    </linearGradient>
    <linearGradient id="Unbenannter_Verlauf_1412" data-name="Unbenannter Verlauf 1412" x1="129.22" y1="230.68" x2="212.86" y2="230.68" gradientUnits="userSpaceOnUse">
      <stop offset="0" stop-color="#2180b6"/>
      <stop offset="1" stop-color="#268db8"/>
    </linearGradient>
    <linearGradient id="Unbenannter_Verlauf_1400" data-name="Unbenannter Verlauf 1400" x1="186.81" y1="250.64" x2="280.28" y2="250.64" gradientUnits="userSpaceOnUse">
      <stop offset="0" stop-color="#278cb9"/>
      <stop offset="1" stop-color="#268ab7"/>
    </linearGradient>
    <linearGradient id="Unbenannter_Verlauf_1422" data-name="Unbenannter Verlauf 1422" x1="105.04" y1="293.82" x2="158.16" y2="230.51" gradientUnits="userSpaceOnUse">
      <stop offset="0" stop-color="#213567"/>
      <stop offset="1" stop-color="#1d5f95"/>
    </linearGradient>
    <linearGradient id="Unbenannter_Verlauf_1244" data-name="Unbenannter Verlauf 1244" x1="327.06" y1="209.69" x2="383.23" y2="94.53" gradientUnits="userSpaceOnUse">
      <stop offset="0" stop-color="#3abacb"/>
      <stop offset="1" stop-color="#54bfce"/>
    </linearGradient>
    <linearGradient id="Unbenannter_Verlauf_1475" data-name="Unbenannter Verlauf 1475" x1="190.32" y1="343.95" x2="224.87" y2="273.11" gradientUnits="userSpaceOnUse">
      <stop offset="0" stop-color="#124b94"/>
      <stop offset="1" stop-color="#1e619d"/>
    </linearGradient>
    <linearGradient id="Unbenannter_Verlauf_1000" data-name="Unbenannter Verlauf 1000" x1="0" y1="30.13" x2="280.28" y2="30.13" gradientUnits="userSpaceOnUse">
      <stop offset="0" stop-color="#5dc1d2"/>
      <stop offset="1" stop-color="#6cc5d1"/>
    </linearGradient>
  </defs>
  <g id="Ebene_1-2" data-name="Ebene 1">
    <g>
      <path class="cls-22" d="M328.43,266.8c12.78-12.58,25.56-25.16,38.33-37.74V86.49C337.94,57.66,309.11,28.83,280.28,0H0v410.68c21.4,21.4,42.81,42.81,64.21,64.21,21.71-21.25,43.43-42.5,65.14-63.74-.04-98.72-.09-197.43-.13-296.15,27.9.11,55.79.22,83.69.33l28.94,28.94v33.55c-3.08,3.08-6.16,6.16-9.24,9.23-6.59,6.58-13.17,13.17-19.76,19.75h-83.64c.04,35.8.09,71.6.13,107.4h150.93c16.05-15.8,32.1-31.61,48.15-47.41Z"/>
      <polygon class="cls-1" points="300.04 164.32 241.85 177.83 283.88 208.42 366.77 229.06 300.04 164.32"/>
      <polygon class="cls-13" points="280.28 314.21 283.88 208.42 366.77 229.06 280.28 314.21"/>
      <path class="cls-8" d="M280.28,0H0v410.68l64.21,64.21,65.14-63.74v-96.94h150.93l86.49-85.16V86.49L280.28,0ZM241.85,177.83l-28.99,28.99h-83.64v-91.81c-.28-.28,83.69.33,83.69.33l28.94,28.94v33.55Z"/>
      <polygon class="cls-2" points="280.28 0 300.04 164.32 366.77 86.49 280.28 0"/>
      <polygon class="cls-4" points="241.85 144.28 280.28 0 300.04 164.32 241.85 177.83 241.85 144.28"/>
      <polygon class="cls-16" points="212.91 115.34 183.38 60.26 280.28 0 241.85 144.28 212.91 115.34"/>
      <polygon class="cls-7" points="212.91 115.34 129.22 115 0 0 183.38 60.26 212.91 115.34"/>
      <polygon class="cls-10" points="129.22 115 62.94 148.36 0 0 129.22 115"/>
      <polygon class="cls-9" points="62.94 148.36 0 197.52 0 0 62.94 148.36"/>
      <polygon class="cls-6" points="129.22 115 62.94 148.36 129.35 314.21 129.22 115"/>
      <polygon class="cls-17" points="62.94 148.36 53.34 346.65 129.35 411.15 129.35 314.21 62.94 148.36"/>
      <polygon class="cls-15" points="0 197.52 53.34 346.65 62.94 148.36 0 197.52"/>
      <polygon class="cls-12" points="64.21 474.9 53.34 346.65 129.35 411.15 64.21 474.9"/>
      <polygon class="cls-3" points="53.34 346.65 0 410.68 64.21 474.9 53.34 346.65"/>
      <polygon class="cls-11" points="0 410.68 53.34 346.65 0 197.52 0 410.68"/>
      <polygon class="cls-20" points="129.22 206.81 186.81 254.55 212.86 206.81 129.22 206.81"/>
      <polygon class="cls-19" points="280.28 314.21 186.81 254.55 212.86 206.81 232.62 187.06 280.28 314.21"/>
      <polygon class="cls-18" points="129.22 206.81 129.35 314.21 186.81 254.55 129.22 206.81"/>
      <polygon class="cls-21" points="300.04 164.32 366.77 229.06 366.77 86.49 300.04 164.32"/>
      <polygon class="cls-5" points="129.35 314.21 186.81 254.55 280.28 314.21 129.35 314.21"/>
      <polygon class="cls-14" points="280.28 0 183.38 60.26 0 0 280.28 0"/>
    </g>
  </g>
</svg>